<svg version="1.1" id="Layer_1" xmlns="http://www.w3.org/2000/svg" xmlns:xlink="http://www.w3.org/1999/xlink" x="0px" y="0px"
	 width="100%" viewBox="0 0 496 496" enable-background="new 0 0 496 496" xml:space="preserve">
<path fill="#000000" opacity="1.000000" stroke="none" 
	d="
M359.353729,235.967987 
	C366.237671,228.168167 374.265686,228.407532 383.804260,232.225082 
	C383.804260,225.328552 383.748688,218.948532 383.836487,212.570465 
	C383.864563,210.530029 383.033600,207.593430 385.854797,207.060242 
	C389.206329,206.426804 392.841522,205.910553 396.112366,207.553802 
	C397.378082,208.189667 397.192261,209.895920 397.193207,211.220596 
	C397.205139,228.051102 397.155151,244.881790 397.233582,261.711914 
	C397.249542,265.141632 395.857697,266.757355 392.466125,266.335083 
	C389.612946,265.979797 386.421356,267.550873 383.950806,264.908478 
	C383.389709,264.308380 382.817017,264.632477 382.159027,264.799042 
	C367.565308,268.493469 367.408386,268.455200 357.694275,259.866058 
	C357.043488,265.760925 352.007843,268.478821 346.366089,266.101562 
	C344.488007,265.310181 344.694214,263.787537 344.672516,262.358398 
	C344.599091,257.526794 344.851135,252.678665 344.534515,247.866089 
	C344.291199,244.167938 343.599304,240.265533 338.528229,240.224945 
	C334.494537,240.192627 332.244110,242.971909 332.141937,248.037170 
	C332.051208,252.534973 331.956146,257.040710 332.124298,261.533203 
	C332.263306,265.247223 330.690216,266.738342 327.070923,266.376434 
	C325.916107,266.260956 324.728973,266.259003 323.575256,266.381226 
	C319.884369,266.772217 318.307037,265.192169 318.717346,261.498169 
	C318.820892,260.566010 318.625641,259.600677 318.550934,258.376007 
	C306.736237,271.512146 289.502686,269.178192 280.899231,259.775330 
	C279.536835,265.954132 275.900330,267.920959 269.351074,266.273132 
	C266.875549,265.650269 266.873993,263.879486 266.853363,262.046448 
	C266.795135,256.881104 266.811829,251.714905 266.794647,246.549042 
	C266.782471,242.881485 265.424011,240.238678 261.315674,240.398422 
	C257.514526,240.546204 256.326965,243.163101 256.320007,246.566101 
	C256.309479,251.731995 256.176971,256.901642 256.334198,262.062439 
	C256.433777,265.330994 255.099045,266.638702 251.912415,266.384583 
	C250.421951,266.265717 248.907272,266.264374 247.416229,266.377228 
	C244.166199,266.623169 242.905960,265.080780 242.947861,261.949890 
	C243.016953,256.785400 242.996735,251.617981 242.907516,246.453629 
	C242.849945,243.121353 241.708511,240.418335 237.802521,240.398392 
	C233.679825,240.377335 232.445786,243.172272 232.370193,246.708954 
	C232.284760,250.706635 232.341187,254.707352 232.337616,258.706757 
	C232.330643,266.515900 232.331192,266.512238 224.321899,266.365082 
	C221.586929,266.314819 218.473267,266.799927 219.536896,261.991302 
	C210.543961,268.975525 201.583069,268.863342 192.287842,264.561737 
	C190.874374,263.907623 189.851349,262.550110 187.834274,263.819611 
	C178.340347,269.794830 166.415497,268.846771 157.771912,259.228271 
	C156.091904,261.610870 158.332993,266.852325 152.965866,266.340546 
	C149.925476,266.050659 146.567841,267.554565 143.903458,265.092529 
	C142.350174,263.657227 141.445328,265.204742 140.419403,265.647552 
	C130.372543,269.984070 119.884415,265.848938 116.104263,255.971329 
	C112.010757,245.274918 117.216713,233.457840 127.494400,230.266861 
	C132.823288,228.612366 137.945892,230.051712 143.668854,232.177048 
	C143.668854,225.655991 143.657928,219.715057 143.671661,213.774200 
	C143.687973,206.722580 143.697189,206.722595 149.894119,206.711212 
	C156.889725,206.698364 156.987900,206.791489 157.007706,214.102280 
	C157.024414,220.268051 156.997696,226.433990 157.036346,232.599579 
	C157.046432,234.206802 157.228790,235.812927 157.348831,237.680923 
	C171.098831,226.554474 180.463821,226.640640 191.893356,237.941528 
	C197.329666,228.489822 205.995438,228.581879 214.988358,230.567764 
	C218.058090,231.245651 220.920837,230.696365 223.864258,230.618622 
	C229.428894,230.471619 234.871689,231.931808 240.623627,229.937607 
	C245.517853,228.240768 250.347794,230.893997 254.078430,234.395477 
	C267.876068,227.355652 272.336975,227.956848 280.016144,237.727875 
	C296.041229,226.460007 305.720215,226.605225 317.969727,238.298080 
	C318.191803,238.106186 318.594391,237.925705 318.608307,237.719025 
	C319.091370,230.546143 322.654907,228.536850 331.280701,231.157455 
	C333.099213,231.709946 334.302216,231.580978 335.892822,230.936310 
	C343.119995,228.007126 350.483368,229.845856 355.534149,236.122345 
	C357.081177,238.044830 357.883636,238.053970 359.353729,235.967987 
M200.695862,256.756378 
	C202.920776,257.684601 205.087814,258.379364 206.774902,254.970276 
	C202.687088,252.627319 198.540924,249.060013 194.436844,249.514435 
	C190.732849,249.924561 186.963974,250.046524 183.238907,250.360931 
	C178.509109,250.760132 173.684021,249.861450 168.692429,251.209488 
	C169.987274,256.207062 173.736755,257.834106 177.464508,256.432007 
	C182.272141,254.623703 186.535919,252.793686 191.215347,256.250214 
	C191.505478,256.464539 192.380432,256.384674 192.599579,256.121826 
	C195.268600,252.920380 197.607864,255.309097 200.695862,256.756378 
M297.057709,255.708603 
	C302.814270,255.916641 305.765564,254.127426 306.556091,249.950256 
	C307.271759,246.168640 305.018250,242.262589 301.390961,241.394455 
	C297.427399,240.445831 294.107971,241.400055 292.171356,245.329407 
	C290.234283,249.259567 291.635162,252.691956 297.057709,255.708603 
M383.454834,251.651779 
	C383.595337,250.672974 383.856232,249.694122 383.855988,248.715347 
	C383.854797,243.758804 380.967133,240.918671 376.194794,241.097656 
	C371.658813,241.267776 369.153046,244.150803 369.224152,248.925766 
	C369.271362,252.094421 370.560669,254.523544 373.585999,255.405914 
	C377.291351,256.486603 380.851807,256.228577 383.454834,251.651779 
M130.830963,253.824081 
	C132.059143,255.027847 133.518860,255.646530 135.244690,255.826920 
	C138.739914,256.192261 141.611816,255.083572 143.060410,251.862595 
	C144.331070,249.037262 144.256622,246.027985 142.002380,243.515808 
	C139.594543,240.832474 136.492905,240.548920 133.339066,241.605560 
	C129.009903,243.056000 127.890617,247.727646 130.830963,253.824081 
M210.621017,243.685867 
	C213.753357,244.758316 216.446243,246.626083 219.271469,248.942017 
	C219.639221,244.411377 219.720032,240.420166 218.847229,235.291840 
	C217.214127,240.213989 214.880142,241.387436 210.914551,239.591751 
	C209.383514,238.898483 207.012207,238.370193 205.580597,240.565125 
	C207.551453,242.575241 207.551453,242.575241 210.621017,243.685867 
M177.668777,242.779373 
	C179.455322,242.671616 180.873291,242.270081 179.227737,240.182205 
	C176.723175,237.004456 171.821808,238.076157 170.126404,242.207016 
	C172.318787,243.272461 174.656204,242.582596 177.668777,242.779373 
z"/>
<path fill="#000000" opacity="1.000000" stroke="none" 
	d="
M410.566833,252.228455 
	C414.164703,255.240402 415.405090,258.689209 413.526459,262.667633 
	C411.979126,265.944550 409.192902,267.579224 405.421265,267.304993 
	C401.596558,267.026886 399.360077,264.822510 398.235657,261.382874 
	C397.274384,258.442444 397.951355,255.714172 400.167908,253.586685 
	C403.098145,250.774231 406.492615,250.074631 410.566833,252.228455 
z"/>
</svg>